<svg width="32" height="32" viewBox="0 0 32 32" fill="none" xmlns="http://www.w3.org/2000/svg">
  <!-- Calculator body -->
  <rect x="4" y="2" width="24" height="28" rx="3" fill="#1f2937"/>
  
  <!-- Screen -->
  <rect x="6" y="4" width="20" height="8" rx="1" fill="#dbeafe"/>
  
  <!-- Screen text -->
  <text x="16" y="9.5" text-anchor="middle" fill="#1f2937" font-size="5" font-family="monospace" font-weight="bold">x²-4</text>
  
  <!-- Buttons -->
  <rect x="6" y="14" width="4" height="3" rx="0.5" fill="#4b5563"/>
  <rect x="11" y="14" width="4" height="3" rx="0.5" fill="#4b5563"/>
  <rect x="16" y="14" width="4" height="3" rx="0.5" fill="#4b5563"/>
  <rect x="21" y="14" width="4" height="3" rx="0.5" fill="#3b82f6"/>
  
  <rect x="6" y="18" width="4" height="3" rx="0.5" fill="#4b5563"/>
  <rect x="11" y="18" width="4" height="3" rx="0.5" fill="#4b5563"/>
  <rect x="16" y="18" width="4" height="3" rx="0.5" fill="#4b5563"/>
  <rect x="21" y="18" width="4" height="3" rx="0.5" fill="#3b82f6"/>
  
  <rect x="6" y="22" width="4" height="3" rx="0.5" fill="#4b5563"/>
  <rect x="11" y="22" width="4" height="3" rx="0.5" fill="#4b5563"/>
  <rect x="16" y="22" width="4" height="3" rx="0.5" fill="#4b5563"/>
  <rect x="21" y="22" width="4" height="3" rx="0.5" fill="#3b82f6"/>
  
  <rect x="6" y="26" width="9" height="3" rx="0.5" fill="#6b7280"/>
  <rect x="16" y="26" width="4" height="3" rx="0.5" fill="#6b7280"/>
  <rect x="21" y="26" width="4" height="3" rx="0.5" fill="#3b82f6"/>
</svg>